<svg width="12" height="12" viewBox="0 0 12 12" fill="none" xmlns="http://www.w3.org/2000/svg">
<path d="M11.25 8.25C11.6484 8.25 12 8.60156 12 9V11.25C12 11.6719 11.6484 12 11.25 12H0.75C0.328125 12 0 11.6719 0 11.25V9C0 8.60156 0.328125 8.25 0.75 8.25H3.86719L4.92188 9.32812C5.20312 9.60938 5.57812 9.75 6 9.75C6.39844 9.75 6.77344 9.60938 7.05469 9.32812L8.10938 8.25H11.25ZM10.125 10.6875C10.4297 10.6875 10.6875 10.4531 10.6875 10.125C10.6875 9.82031 10.4297 9.5625 10.125 9.5625C9.79688 9.5625 9.5625 9.82031 9.5625 10.125C9.5625 10.4531 9.79688 10.6875 10.125 10.6875ZM5.46094 8.78906L2.46094 5.78906C2.15625 5.50781 2.15625 5.01562 2.46094 4.73438C2.74219 4.42969 3.23438 4.42969 3.51562 4.73438L5.25 6.44531V0.75C5.25 0.351562 5.57812 0 6 0C6.39844 0 6.75 0.351562 6.75 0.75V6.44531L8.46094 4.73438C8.74219 4.42969 9.23438 4.42969 9.51562 4.73438C9.82031 5.01562 9.82031 5.50781 9.51562 5.78906L6.51562 8.78906C6.375 8.92969 6.1875 9 6 9C5.78906 9 5.60156 8.92969 5.46094 8.78906Z" fill="#005DA9"/>
</svg>
