<svg width="14" height="15" viewBox="0 0 14 15" fill="none" xmlns="http://www.w3.org/2000/svg">
<path d="M13.375 8.59375C13.75 8.75 13.9688 9.125 13.875 9.5V13.75C13.875 14.125 13.5625 14.4688 13.1562 14.4688H8.9375C8.53125 14.4688 8.15625 14.2188 8 13.8438C7.96875 13.7188 7.9375 13.5938 7.9375 13.4688C7.9375 13.1875 8.03125 12.9375 8.21875 12.75L9.6875 11.2812L6.9375 8.53125L4.15625 11.2812L5.625 12.75C5.90625 13.0312 6 13.4688 5.84375 13.8438C5.6875 14.2188 5.34375 14.4688 4.9375 14.4688H0.71875C0.3125 14.4688 0 14.1562 0 13.75V9.53125C0 9.125 0.21875 8.75 0.59375 8.59375C0.71875 8.53125 0.84375 8.53125 1 8.53125C1.25 8.53125 1.5 8.625 1.6875 8.8125L3.15625 10.2812L5.9375 7.5L3.1875 4.6875L1.71875 6.15625C1.4375 6.46875 1 6.53125 0.625 6.375C0.25 6.21875 0 5.875 0 5.46875V1.25C0 0.84375 0.3125 0.53125 0.75 0.53125H5C5.375 0.53125 5.75 0.75 5.90625 1.125C5.96875 1.25 5.96875 1.375 5.96875 1.53125C5.96875 1.78125 5.875 2.03125 5.6875 2.21875L4.21875 3.6875L7 6.46875L9.8125 3.71875L8.34375 2.25C8.03125 1.96875 7.96875 1.53125 8.125 1.15625C8.28125 0.78125 8.625 0.53125 9.03125 0.53125H13.25C13.6562 0.53125 13.9688 0.84375 13.9688 1.25V5.5C13.9688 5.90625 13.75 6.28125 13.375 6.4375C13.25 6.5 13.125 6.5 12.9688 6.5C12.7188 6.5 12.4688 6.40625 12.2812 6.21875L10.8125 4.75L8.03125 7.5L10.8125 10.2812L12.2812 8.8125C12.5625 8.53125 13 8.4375 13.375 8.59375Z" fill="#F4F5FD"/>
</svg>
