<svg width="18" height="17" viewBox="0 0 18 17" fill="none" xmlns="http://www.w3.org/2000/svg">
<path d="M10.75 7.5C10.3125 7.5 10 7.1875 9.96875 6.75V2.53125C9.96875 2.125 10.1875 1.75 10.5625 1.59375C10.6875 1.53125 10.8125 1.53125 10.9688 1.53125C11.2188 1.53125 11.4688 1.625 11.6562 1.8125L13.125 3.28125L15.6875 0.75C15.9688 0.4375 16.4375 0.4375 16.75 0.75C17.0312 1.03125 17.0312 1.5 16.75 1.78125L14.1875 4.34375L15.6562 5.8125C15.9375 6.09375 16.0312 6.53125 15.875 6.90625C15.7188 7.28125 15.375 7.5 14.9688 7.5H10.75ZM7.25 9.5C7.65625 9.5 8 9.84375 8 10.25V14.5C8 14.9062 7.75 15.2812 7.375 15.4375C7.25 15.5 7.125 15.5 7 15.5C6.71875 15.5 6.46875 15.4062 6.28125 15.2188L4.8125 13.75L2.25 16.2812C2.125 16.4375 1.9375 16.5 1.75 16.5C1.53125 16.5 1.34375 16.4375 1.21875 16.2812C0.90625 15.9688 0.90625 15.5 1.21875 15.2188L3.75 12.6562L2.28125 11.1875C2 10.9062 1.90625 10.4688 2.0625 10.0938C2.21875 9.71875 2.59375 9.5 3 9.5H7.25ZM7.375 1.59375C7.75 1.75 8 2.125 7.9375 2.5V6.78125C7.9375 7.1875 7.625 7.5 7.21875 7.5H3C2.59375 7.5 2.21875 7.28125 2.0625 6.90625C2 6.78125 2 6.65625 2 6.5C2 6.25 2.09375 6 2.28125 5.8125L3.75 4.34375L1.21875 1.78125C0.90625 1.5 0.90625 1.03125 1.21875 0.75C1.5 0.4375 1.96875 0.4375 2.25 0.75L4.8125 3.28125L6.28125 1.78125C6.46875 1.59375 6.71875 1.5 7 1.5C7.125 1.5 7.25 1.53125 7.375 1.59375ZM14.2188 12.6875L16.75 15.25C17.0625 15.5312 17.0625 16 16.75 16.2812C16.625 16.4375 16.4375 16.5 16.25 16.5C16.0312 16.5 15.8438 16.4375 15.75 16.25L13.2188 13.6875L11.75 15.1562C11.5625 15.3438 11.3125 15.4688 11.0312 15.4688C10.9062 15.4688 10.7812 15.4375 10.6562 15.375C10.2812 15.2188 10.0312 14.875 10.0312 14.4688V10.25C10.0312 9.84375 10.3438 9.53125 10.75 9.53125H15C15.375 9.53125 15.75 9.75 15.9062 10.125C16.0625 10.5 15.9688 10.9375 15.6875 11.2188L14.2188 12.6875Z" fill="#1D2150"/>
</svg>
